<svg aria-hidden="true" style="width:0;height:0;position:absolute;overflow:hidden" xmlns="http://www.w3.org/2000/svg"><defs><symbol id="icon-label" viewBox="0 0 32 32"><path d="M29 3H17.7L2.8 17.8l11.3 11.3L29 14.3V3zm-9 9V8h4v4h-4z"/></symbol><symbol id="icon-pencil" viewBox="0 0 32 32"><path d="M27 0a5 5 0 0 1 4 8l-2 2-7-7 2-2c.836-.628 1.874-1 3-1zM2 23l-2 9 9-2 18.5-18.5-7-7L2 23zm20.362-11.638-14 14-1.724-1.724 14-14 1.724 1.724z"/></symbol><symbol id="icon-shopping-cart" viewBox="0 0 24 24"><path d="M11 21c0-.552-.225-1.053-.586-1.414a1.996 1.996 0 0 0-2.828 0 1.996 1.996 0 0 0 0 2.828 1.996 1.996 0 0 0 2.828 0c.361-.361.586-.862.586-1.414zm11 0c0-.552-.225-1.053-.586-1.414a1.996 1.996 0 0 0-2.828 0 1.996 1.996 0 0 0 0 2.828 1.996 1.996 0 0 0 2.828 0c.361-.361.586-.862.586-1.414zM7.221 7h14.57l-1.371 7.191A1 1 0 0 1 19.4 15H9.666a1.016 1.016 0 0 1-.626-.203.99.99 0 0 1-.379-.603zM1 2h3.18l.848 4.239C5.136 6.676 5.53 7 6 7h1.221l-.4-2H6a1 1 0 0 0-.971 1.239L6.7 14.586A3.009 3.009 0 0 0 9.694 17H19.4a2.97 2.97 0 0 0 1.995-.727 3.02 3.02 0 0 0 .985-1.683l1.602-8.402A1 1 0 0 0 23 5H6.82L5.98.804A1 1 0 0 0 5 0H1a1 1 0 0 0 0 2z"/></symbol><symbol id="icon-info" viewBox="0 0 32 32"><path d="M14 9.5c0-.825.675-1.5 1.5-1.5h1c.825 0 1.5.675 1.5 1.5v1c0 .825-.675 1.5-1.5 1.5h-1c-.825 0-1.5-.675-1.5-1.5v-1zM20 24h-8v-2h2v-6h-2v-2h6v8h2z"/><path d="M16 0C7.163 0 0 7.163 0 16s7.163 16 16 16 16-7.163 16-16S24.837 0 16 0zm0 29C8.82 29 3 23.18 3 16S8.82 3 16 3s13 5.82 13 13-5.82 13-13 13z"/></symbol><symbol id="icon-images" viewBox="0 0 36 32"><path d="M34 4h-2V2c0-1.1-.9-2-2-2H2C.9 0 0 .9 0 2v24c0 1.1.9 2 2 2h2v2c0 1.1.9 2 2 2h28c1.1 0 2-.9 2-2V6c0-1.1-.9-2-2-2zM4 6v20H2.004L2 25.996V2.003l.004-.004h27.993l.004.004v1.996h-24c-1.1 0-2 .9-2 2zm30 23.996-.004.004H6.003l-.004-.004V6.003l.004-.004h27.993l.004.004v23.993z"/><path d="M30 11a3 3 0 1 1-6 0 3 3 0 0 1 6 0zM32 28H8v-4l7-12 8 10h2l7-6z"/></symbol><symbol id="icon-table" viewBox="0 0 32 32"><path d="M0 2v28h32V2H0zm12 18v-6h8v6h-8zm8 2v6h-8v-6h8zm0-16v6h-8V6h8zM10 6v6H2V6h8zm-8 8h8v6H2v-6zm20 0h8v6h-8v-6zm0-2V6h8v6h-8zM2 22h8v6H2v-6zm20 6v-6h8v6h-8z"/></symbol><symbol id="icon-list" viewBox="0 0 32 32"><path d="M12 2h20v4H12V2zm0 12h20v4H12v-4zm0 12h20v4H12v-4zM0 4a4 4 0 1 1 8 0 4 4 0 0 1-8 0zm0 12a4 4 0 1 1 8 0 4 4 0 0 1-8 0zm0 12a4 4 0 1 1 8 0 4 4 0 0 1-8 0z"/></symbol><symbol id="icon-home" viewBox="0 0 32 32"><path d="M32 18.451 16 6.031 0 18.451v-5.064L16 .967l16 12.42zM28 18v12h-8v-8h-8v8H4V18l12-9z"/></symbol><symbol id="icon-menu" viewBox="0 0 32 32"><path d="M2 6h28v6H2zm0 8h28v6H2zm0 8h28v6H2z"/></symbol><symbol id="icon-onMenuOpen" viewBox="0 0 44 32"><path d="M0 6h28v6H0V6zm0 8h28v6H0v-6zm0 8h28v6H0v-6zM31 14l6 6 6-6z"/></symbol><symbol id="icon-onMenuClose" viewBox="0 0 44 32"><path d="M0 6h28v6H0V6zm0 8h28v6H0v-6zm0 8h28v6H0v-6zM31 20l6-6 6 6z"/></symbol><symbol id="icon-menu-3" viewBox="0 0 24 24"><path d="M19 17H5c-1.103 0-2 .897-2 2s.897 2 2 2h14c1.103 0 2-.897 2-2s-.897-2-2-2zM19 10H5c-1.103 0-2 .897-2 2s.897 2 2 2h14c1.103 0 2-.897 2-2s-.897-2-2-2zM19 3H5c-1.103 0-2 .897-2 2s.897 2 2 2h14c1.103 0 2-.897 2-2s-.897-2-2-2z"/></symbol><symbol id="icon-menu-2" viewBox="0 0 24 24"><path d="M3 13h18a1 1 0 0 0 0-2H3a1 1 0 0 0 0 2zm0-6h18a1 1 0 0 0 0-2H3a1 1 0 0 0 0 2zm0 12h18a1 1 0 0 0 0-2H3a1 1 0 0 0 0 2z"/></symbol><symbol id="icon-filter-2" viewBox="0 0 24 24"><path d="m19.845 4-6.609 7.814a.995.995 0 0 0-.236.646v6.922l-2-1V12.46a.996.996 0 0 0-.236-.646L4.155 4zM22 2H2a1 1 0 0 0-.764 1.646L9 12.826V19a1 1 0 0 0 .553.894l4 2A1 1 0 0 0 15 21v-8.174l7.764-9.18A.999.999 0 0 0 22 2z"/></symbol><symbol id="icon-bookmark-outline" viewBox="0 0 20 20"><path d="M2 2c0-1.1.9-2 2-2h12a2 2 0 0 1 2 2v18l-8-4-8 4V2zm2 0v15l6-3 6 3V2H4z"/></symbol><symbol id="icon-bookmark" viewBox="0 0 20 20"><path d="M2 2c0-1.1.9-2 2-2h12a2 2 0 0 1 2 2v18l-8-4-8 4V2z"/></symbol><symbol id="icon-share-alt" viewBox="0 0 24 28"><path d="M19 16c2.766 0 5 2.234 5 5s-2.234 5-5 5-5-2.234-5-5a6.3 6.3 0 0 1 .031-.531l-5.625-2.812A4.994 4.994 0 0 1 0 14.001a4.994 4.994 0 0 1 8.406-3.656l5.625-2.812A5.907 5.907 0 0 1 14 7.002c0-2.766 2.234-5 5-5s5 2.234 5 5a4.994 4.994 0 0 1-8.406 3.656L9.969 13.47c.016.172.031.359.031.531s-.016.359-.031.531l5.625 2.812A5.005 5.005 0 0 1 19 16z"/></symbol><symbol id="icon-bookmark-o" viewBox="0 0 20 28"><path d="M18 4H2v19.406l8-7.672 1.391 1.328L18 23.406V4zm.188-2c.234 0 .469.047.688.141a1.73 1.73 0 0 1 1.125 1.609v20.141a1.73 1.73 0 0 1-1.125 1.609 1.727 1.727 0 0 1-.688.125 1.9 1.9 0 0 1-1.297-.5L10 18.5l-6.891 6.625a1.914 1.914 0 0 1-1.297.516c-.234 0-.469-.047-.688-.141a1.73 1.73 0 0 1-1.125-1.609V3.75a1.73 1.73 0 0 1 1.125-1.609c.219-.094.453-.141.688-.141h16.375z"/></symbol><symbol id="icon-bookmark1" viewBox="0 0 20 28"><path d="M18.188 2c.234 0 .469.047.688.141a1.73 1.73 0 0 1 1.125 1.609v20.141a1.73 1.73 0 0 1-1.125 1.609 1.727 1.727 0 0 1-.688.125 1.9 1.9 0 0 1-1.297-.5L10 18.5l-6.891 6.625a1.914 1.914 0 0 1-1.297.516c-.234 0-.469-.047-.688-.141a1.73 1.73 0 0 1-1.125-1.609V3.75a1.73 1.73 0 0 1 1.125-1.609c.219-.094.453-.141.688-.141h16.375z"/></symbol><symbol id="icon-heart-o" viewBox="0 0 28 28"><path d="M26 9.312c0-4.391-2.969-5.313-5.469-5.313-2.328 0-4.953 2.516-5.766 3.484-.375.453-1.156.453-1.531 0-.812-.969-3.437-3.484-5.766-3.484-2.5 0-5.469.922-5.469 5.313 0 2.859 2.891 5.516 2.922 5.547l9.078 8.75 9.063-8.734C23.109 14.828 26 12.172 26 9.312zm2 0c0 3.75-3.437 6.891-3.578 7.031l-9.734 9.375c-.187.187-.438.281-.688.281s-.5-.094-.688-.281l-9.75-9.406c-.125-.109-3.563-3.25-3.563-7 0-4.578 2.797-7.313 7.469-7.313 2.734 0 5.297 2.156 6.531 3.375 1.234-1.219 3.797-3.375 6.531-3.375 4.672 0 7.469 2.734 7.469 7.313z"/></symbol><symbol id="icon-star-o" viewBox="0 0 26 28"><path d="m17.766 15.687 4.781-4.641-6.594-.969L13 4.108l-2.953 5.969-6.594.969 4.781 4.641-1.141 6.578 5.906-3.109 5.891 3.109zM26 10.109c0 .281-.203.547-.406.75l-5.672 5.531 1.344 7.812c.016.109.016.203.016.313 0 .422-.187.781-.641.781a1.27 1.27 0 0 1-.625-.187L13 21.422l-7.016 3.687c-.203.109-.406.187-.625.187-.453 0-.656-.375-.656-.781 0-.109.016-.203.031-.313l1.344-7.812L.39 10.859c-.187-.203-.391-.469-.391-.75 0-.469.484-.656.875-.719l7.844-1.141 3.516-7.109c.141-.297.406-.641.766-.641s.625.344.766.641l3.516 7.109 7.844 1.141c.375.063.875.25.875.719z"/></symbol><symbol id="icon-star" viewBox="0 0 26 28"><path d="M26 10.109c0 .281-.203.547-.406.75l-5.672 5.531 1.344 7.812c.016.109.016.203.016.313 0 .406-.187.781-.641.781a1.27 1.27 0 0 1-.625-.187L13 21.422l-7.016 3.687c-.203.109-.406.187-.625.187-.453 0-.656-.375-.656-.781 0-.109.016-.203.031-.313l1.344-7.812L.39 10.859c-.187-.203-.391-.469-.391-.75 0-.469.484-.656.875-.719l7.844-1.141 3.516-7.109c.141-.297.406-.641.766-.641s.625.344.766.641l3.516 7.109 7.844 1.141c.375.063.875.25.875.719z"/></symbol><symbol id="icon-heart" viewBox="0 0 28 28"><path d="M14 26c-.25 0-.5-.094-.688-.281l-9.75-9.406c-.125-.109-3.563-3.25-3.563-7C-.001 4.735 2.796 2 7.468 2c2.734 0 5.297 2.156 6.531 3.375C15.233 4.156 17.796 2 20.53 2c4.672 0 7.469 2.734 7.469 7.313 0 3.75-3.437 6.891-3.578 7.031l-9.734 9.375a.972.972 0 0 1-.688.281z"/></symbol><symbol id="icon-checkbox-checked" viewBox="0 0 32 32"><path d="M28 0H4C1.8 0 0 1.8 0 4v24c0 2.2 1.8 4 4 4h24c2.2 0 4-1.8 4-4V4c0-2.2-1.8-4-4-4zM14 24.828l-7.414-7.414 2.828-2.828L14 19.172l9.586-9.586 2.828 2.828L14 24.828z"/></symbol><symbol id="icon-checkbox-unchecked" viewBox="0 0 32 32"><path d="M28 0H4C1.8 0 0 1.8 0 4v24c0 2.2 1.8 4 4 4h24c2.2 0 4-1.8 4-4V4c0-2.2-1.8-4-4-4zm0 28H4V4h24v24z"/></symbol><symbol id="icon-filter" viewBox="0 0 32 32"><path d="M16 0C7.163 0 0 2.239 0 5v3l12 12v10c0 1.105 1.791 2 4 2s4-.895 4-2V20L32 8V5c0-2.761-7.163-5-16-5zM2.95 4.338c.748-.427 1.799-.832 3.04-1.171C8.738 2.415 12.293 2 16.001 2s7.262.414 10.011 1.167c1.241.34 2.292.745 3.04 1.171.494.281.76.519.884.662-.124.142-.391.38-.884.662-.748.427-1.8.832-3.04 1.171C23.264 7.585 19.709 8 16.001 8S8.739 7.586 5.99 6.833c-1.24-.34-2.292-.745-3.04-1.171-.494-.282-.76-.519-.884-.662.124-.142.391-.38.884-.662z"/></symbol><symbol id="icon-twitter-1" viewBox="0 0 32 32"><path d="M32 6.078c-1.19.522-2.458.868-3.78 1.036a6.523 6.523 0 0 0 2.886-3.626 13.11 13.11 0 0 1-4.16 1.588A6.574 6.574 0 0 0 22.154 3c-3.632 0-6.556 2.948-6.556 6.562 0 .52.044 1.02.152 1.496-5.454-.266-10.28-2.88-13.522-6.862a6.605 6.605 0 0 0-.898 3.316 6.57 6.57 0 0 0 2.914 5.452 6.479 6.479 0 0 1-2.964-.808v.072c0 3.188 2.274 5.836 5.256 6.446a6.548 6.548 0 0 1-1.72.216 5.8 5.8 0 0 1-1.242-.112c.85 2.598 3.262 4.508 6.13 4.57a13.182 13.182 0 0 1-8.134 2.798c-.538 0-1.054-.024-1.57-.09A18.469 18.469 0 0 0 10.064 29c12.072 0 18.672-10 18.672-18.668 0-.29-.01-.57-.024-.848A13.087 13.087 0 0 0 32 6.078z"/></symbol><symbol id="icon-facebook-1" viewBox="0 0 32 32"><path d="M21.329 5.313h2.921V.225C23.746.156 22.013 0 19.994 0c-4.212 0-7.097 2.649-7.097 7.519V12H8.249v5.688h4.648V32h5.699V17.689h4.46l.708-5.688h-5.169V8.082c.001-1.644.444-2.769 2.735-2.769z"/></symbol><symbol id="icon-instagram-1" viewBox="0 0 32 32"><path d="M31.969 9.408c-.075-1.7-.35-2.869-.744-3.882a7.806 7.806 0 0 0-1.851-2.838A7.867 7.867 0 0 0 26.542.844C25.523.45 24.36.175 22.66.1 20.947.019 20.403 0 16.059 0s-4.888.019-6.595.094c-1.7.075-2.869.35-3.882.744a7.803 7.803 0 0 0-2.838 1.85A7.867 7.867 0 0 0 .9 5.52C.506 6.539.231 7.702.156 9.402c-.081 1.713-.1 2.257-.1 6.601s.019 4.888.094 6.595c.075 1.7.35 2.869.744 3.882a7.895 7.895 0 0 0 1.85 2.838 7.867 7.867 0 0 0 2.832 1.844c1.019.394 2.182.669 3.882.744 1.706.075 2.25.094 6.595.094s4.888-.019 6.595-.094c1.7-.075 2.869-.35 3.882-.744a8.184 8.184 0 0 0 4.682-4.682c.394-1.019.669-2.182.744-3.882.075-1.707.094-2.251.094-6.595s-.006-4.888-.081-6.595zm-2.882 13.065c-.069 1.563-.331 2.407-.55 2.969a5.31 5.31 0 0 1-3.038 3.038c-.563.219-1.413.481-2.969.55-1.688.075-2.194.094-6.464.094s-4.782-.019-6.464-.094c-1.563-.069-2.407-.331-2.969-.55a4.926 4.926 0 0 1-1.838-1.194 4.974 4.974 0 0 1-1.194-1.838c-.219-.563-.481-1.413-.55-2.969-.075-1.688-.094-2.194-.094-6.464s.019-4.782.094-6.464c.069-1.563.331-2.407.55-2.969a4.868 4.868 0 0 1 1.2-1.838A4.974 4.974 0 0 1 6.639 3.55c.563-.219 1.413-.481 2.969-.55 1.688-.075 2.194-.094 6.464-.094 4.276 0 4.782.019 6.464.094 1.563.069 2.407.331 2.969.55a4.914 4.914 0 0 1 1.838 1.194 4.974 4.974 0 0 1 1.194 1.838c.219.563.481 1.413.55 2.969.075 1.688.094 2.194.094 6.464s-.019 4.77-.094 6.458z"/><path d="M16.059 7.783c-4.538 0-8.22 3.682-8.22 8.22s3.682 8.22 8.22 8.22c4.539 0 8.22-3.682 8.22-8.22s-3.682-8.22-8.22-8.22zm0 13.552a5.333 5.333 0 0 1 0-10.664 5.333 5.333 0 0 1 0 10.664zM26.524 7.458a1.919 1.919 0 1 1-3.838 0 1.919 1.919 0 0 1 3.838 0z"/></symbol><symbol id="icon-linkedin-1" viewBox="0 0 32 32"><path d="M31.992 32v-.001H32V20.263c0-5.741-1.236-10.164-7.948-10.164-3.227 0-5.392 1.771-6.276 3.449h-.093v-2.913h-6.364v21.364h6.627V21.42c0-2.785.528-5.479 3.977-5.479 3.399 0 3.449 3.179 3.449 5.657v10.401h6.62zM.528 10.636h6.635V32H.528V10.636zM3.843 0C1.722 0 0 1.721 0 3.843s1.721 3.879 3.843 3.879c2.121 0 3.843-1.757 3.843-3.879A3.846 3.846 0 0 0 3.843 0z"/></symbol><symbol id="icon-facebook" viewBox="0 0 32 32"><path d="M19 6h5V0h-5c-3.86 0-7 3.14-7 7v3H8v6h4v16h6V16h5l1-6h-6V7c0-.542.458-1 1-1z"/></symbol><symbol id="icon-tiktok" viewBox="0 0 32 32"><path d="M16.707.027C18.454 0 20.187.014 21.92 0c.107 2.04.84 4.12 2.333 5.56 1.493 1.48 3.6 2.16 5.653 2.387v5.373c-1.92-.067-3.853-.467-5.6-1.293-.76-.347-1.467-.787-2.16-1.24-.013 3.893.013 7.787-.027 11.667-.107 1.867-.72 3.72-1.8 5.253-1.747 2.56-4.773 4.227-7.88 4.28-1.907.107-3.813-.413-5.44-1.373-2.693-1.587-4.587-4.493-4.867-7.613a24.42 24.42 0 0 1-.013-1.987 10.004 10.004 0 0 1 3.44-6.613c2.213-1.92 5.307-2.84 8.2-2.293.027 1.973-.053 3.947-.053 5.92-1.32-.427-2.867-.307-4.027.493a4.631 4.631 0 0 0-1.813 2.333c-.28.68-.2 1.427-.187 2.147.32 2.187 2.427 4.027 4.667 3.827 1.493-.013 2.92-.88 3.693-2.147.253-.44.533-.893.547-1.413.133-2.387.08-4.76.093-7.147.013-5.373-.013-10.733.027-16.093z"/></symbol><symbol id="icon-instagram" viewBox="0 0 32 32"><path d="M16 2.881c4.275 0 4.781.019 6.462.094 1.563.069 2.406.331 2.969.55a4.952 4.952 0 0 1 1.837 1.194 5.015 5.015 0 0 1 1.2 1.838c.219.563.481 1.412.55 2.969.075 1.688.094 2.194.094 6.463s-.019 4.781-.094 6.463c-.069 1.563-.331 2.406-.55 2.969a4.94 4.94 0 0 1-1.194 1.837 5.02 5.02 0 0 1-1.837 1.2c-.563.219-1.413.481-2.969.55-1.688.075-2.194.094-6.463.094s-4.781-.019-6.463-.094c-1.563-.069-2.406-.331-2.969-.55a4.952 4.952 0 0 1-1.838-1.194 5.02 5.02 0 0 1-1.2-1.837c-.219-.563-.481-1.413-.55-2.969-.075-1.688-.094-2.194-.094-6.463s.019-4.781.094-6.463c.069-1.563.331-2.406.55-2.969a4.964 4.964 0 0 1 1.194-1.838 5.015 5.015 0 0 1 1.838-1.2c.563-.219 1.412-.481 2.969-.55 1.681-.075 2.188-.094 6.463-.094zM16 0c-4.344 0-4.887.019-6.594.094-1.7.075-2.869.35-3.881.744-1.056.412-1.95.956-2.837 1.85a7.833 7.833 0 0 0-1.85 2.831C.444 6.538.169 7.7.094 9.4.019 11.113 0 11.656 0 16s.019 4.887.094 6.594c.075 1.7.35 2.869.744 3.881.413 1.056.956 1.95 1.85 2.837a7.82 7.82 0 0 0 2.831 1.844c1.019.394 2.181.669 3.881.744 1.706.075 2.25.094 6.594.094s4.888-.019 6.594-.094c1.7-.075 2.869-.35 3.881-.744 1.05-.406 1.944-.956 2.831-1.844s1.438-1.781 1.844-2.831c.394-1.019.669-2.181.744-3.881.075-1.706.094-2.25.094-6.594s-.019-4.887-.094-6.594c-.075-1.7-.35-2.869-.744-3.881a7.506 7.506 0 0 0-1.831-2.844A7.82 7.82 0 0 0 26.482.843C25.463.449 24.301.174 22.601.099c-1.712-.081-2.256-.1-6.6-.1z"/><path d="M16 7.781c-4.537 0-8.219 3.681-8.219 8.219s3.681 8.219 8.219 8.219 8.219-3.681 8.219-8.219A8.221 8.221 0 0 0 16 7.781zm0 13.55a5.331 5.331 0 1 1 0-10.663 5.331 5.331 0 0 1 0 10.663zM26.462 7.456a1.919 1.919 0 1 1-3.838 0 1.919 1.919 0 0 1 3.838 0z"/></symbol><symbol id="icon-youtube" viewBox="0 0 80 32"><path d="M10.75 5.294a.449.449 0 0 0 .012-.056l.033-.236-1.48-.008c-1.337-.008-1.746 0-1.783.034-.018.016-.479 1.77-1.302 4.946-.392 1.515-.723 2.725-.734 2.689s-.481-1.766-1.044-3.843c-.563-2.078-1.034-3.789-1.048-3.803-.019-.019-1.812-.028-3.263-.016-.21.002-.327-.41 1.876 6.598.305.97.762 2.344 1.015 3.052.292.817.5 1.448.642 1.974.251 1.002.26 1.63.205 2.363-.063.847-.073 6.826-.011 6.926.047.077 2.851.112 3.116.04.042-.012.071-.053.09-.279.066-.194.071-.968.071-4.18v-4.103l.179-.566c.117-.37.413-1.344.656-2.163s.538-1.801.654-2.18c1.057-3.447 2.067-6.838 2.094-7.032l.022-.158zM26.441 10.27l-.001.214h-.033l-.019 5.906-.018 5.726-.458.467c-.513.522-.925.722-1.297.629-.405-.102-.395.056-.429-6.712l-.031-6.23h-2.947v.214h-.034v6.759c0 7.242 0 7.237.367 7.965.293.579.719.861 1.45.958.962.128 2-.308 2.962-1.244l.418-.407v.701c0 .606.017.706.127.737.18.05 2.412.053 2.653.004l.2-.041v-.207l.034-.007V10.23l-2.944.039zM18.965 13.323c-.279-1.198-.802-2.004-1.664-2.561-1.353-.875-2.897-.967-4.331-.259-1.045.516-1.717 1.372-2.065 2.628-.041.15-.072.275-.095.463-.088.443-.099 1.105-.122 4.186-.035 4.748.019 5.313.614 6.391.583 1.058 1.794 1.833 3.112 1.993.397.048 1.201-.027 1.663-.155 1.051-.291 2.058-1.122 2.504-2.065.192-.407.309-.691.379-1.208.13-.707.14-1.849.14-4.762 0-3.715-.012-4.121-.136-4.651zM15.604 23c-.247.188-.679.27-1.031.195-.271-.058-.636-.482-.748-.869-.14-.482-.151-7.187-.03-8.502.199-.658.756-1.002 1.364-.838.474.128.716.424.854 1.046.103.461.115 1.035.093 4.414-.014 2.241-.022 3.336-.096 3.924-.074.371-.197.47-.407.63zM71.887 16.692h1.424l-.023-1.29c-.022-1.183-.039-1.319-.198-1.64-.249-.507-.617-.731-1.201-.731-.701 0-1.146.339-1.356 1.036-.089.296-.183 2.334-.116 2.51.038.098.241.116 1.469.116zM62.369 13.757c-.19-.383-.543-.571-.954-.556-.319.011-.674.146-1.015.407l-.254.193v9.269l.254.193c.576.439 1.209.532 1.644.241.172-.115.285-.274.372-.527.114-.329.124-.75.109-4.649-.015-4.064-.024-4.303-.157-4.57z"/><path d="M80.027 9.582c-.284-3.401-.509-4.505-1.211-5.923-.929-1.878-2.272-2.868-4.184-3.086-1.478-.168-7.041-.405-12.189-.52-8.912-.198-23.564.183-25.436.662-.865.221-1.513.597-2.188 1.269-1.183 1.177-1.887 2.865-2.17 5.2-.647 5.331-.66 11.773-.037 17.297.268 2.376.82 3.92 1.857 5.192.647.794 1.761 1.469 2.758 1.67.7.141 4.201.337 9.3.521.76.027 2.771.074 4.47.105 3.541.063 10.051.026 13.772-.079 2.504-.07 7.069-.255 7.922-.321.24-.019.796-.054 1.236-.079 1.477-.083 2.417-.393 3.3-1.086 1.142-.897 2.027-2.556 2.4-4.501.354-1.84.59-5.118.638-8.839.04-3.109-.013-4.787-.238-7.482zM44.54 8.35l-1.656.02-.073 17.661-1.435.018c-1.11.015-1.447-.001-1.474-.073-.019-.051-.042-4.032-.052-8.849l-.018-8.758-3.234-.041v-2.76l9.557.039.041 2.721-1.656.02zm10.154 10.122v7.595h-2.616v-.799c0-.601-.023-.799-.093-.799-.051 0-.288.198-.527.441-.517.526-1.13.949-1.653 1.145-1.083.405-2.112.169-2.551-.586-.401-.691-.409-.845-.409-8.01v-6.58h2.614l.02 6.196c.019 6.088.022 6.2.168 6.448.193.329.488.417.956.288.276-.076.464-.21.911-.654l.563-.561V10.879h2.616v7.595zm10.205 6.51c-.23.513-.744 1.016-1.165 1.14-1.099.324-1.98.06-2.998-.897-.316-.297-.61-.538-.654-.538-.053 0-.082.233-.082.69v.69h-2.616V5.572H60v3.343c0 1.839.025 3.343.054 3.343s.306-.244.613-.541c.707-.683 1.298-.981 2.049-1.038 1.338-.101 2.135.587 2.501 2.16.114.491.125 1.051.125 5.596 0 5.537-.001 5.56-.443 6.546zm11.069-3.039c-.023.57-.092 1.223-.154 1.454-.364 1.349-1.332 2.304-2.732 2.696-1.885.527-3.96-.337-4.788-1.994-.465-.93-.481-1.116-.481-5.662 0-3.707.013-4.162.132-4.667.336-1.431 1.168-2.357 2.578-2.871a3.917 3.917 0 0 1 1.261-.234c1.521-.031 3.031.787 3.663 2.119.427.899.48 1.283.522 3.816l.039 2.271-5.578.039-.02 1.526c-.029 2.153.116 2.815.697 3.207.489.329 1.24.305 1.649-.055.383-.337.491-.698.529-1.753l.034-.927h2.694l-.043 1.036z"/></symbol><symbol id="icon-youtube-play" viewBox="0 0 32 32"><path d="M30.662 5.003C26.174 4.358 21.214 4 16 4S5.826 4.358 1.338 5.003C.478 8.369 0 12.089 0 16s.477 7.63 1.338 10.997C5.827 27.642 10.786 28 16 28s10.174-.358 14.662-1.003C31.522 23.631 32 19.911 32 16s-.477-7.63-1.338-10.997zM12 22V10l10 6-10 6z"/></symbol><symbol id="icon-pinterest" viewBox="0 0 32 32"><path d="M16 2.138c-7.656 0-13.863 6.206-13.863 13.863 0 5.875 3.656 10.887 8.813 12.906-.119-1.094-.231-2.781.05-3.975.25-1.081 1.625-6.887 1.625-6.887s-.412-.831-.412-2.056c0-1.925 1.119-3.369 2.506-3.369 1.181 0 1.756.887 1.756 1.95 0 1.188-.756 2.969-1.15 4.613-.331 1.381.688 2.506 2.05 2.506 2.462 0 4.356-2.6 4.356-6.35 0-3.319-2.387-5.638-5.787-5.638-3.944 0-6.256 2.956-6.256 6.019 0 1.194.456 2.469 1.031 3.163a.408.408 0 0 1 .094.4c-.106.438-.338 1.381-.387 1.575-.063.256-.2.306-.463.188-1.731-.806-2.813-3.337-2.813-5.369 0-4.375 3.175-8.387 9.156-8.387 4.806 0 8.544 3.425 8.544 8.006 0 4.775-3.012 8.625-7.194 8.625-1.406 0-2.725-.731-3.175-1.594 0 0-.694 2.644-.863 3.294-.313 1.206-1.156 2.712-1.725 3.631 1.3.4 2.675.619 4.106.619 7.656 0 13.863-6.206 13.863-13.863 0-7.662-6.206-13.869-13.863-13.869z"/></symbol><symbol id="icon-pinterest2" viewBox="0 0 32 32"><path d="M16 0C7.175 0 0 7.175 0 16s7.175 16 16 16 16-7.175 16-16S24.825 0 16 0zm0 29.863c-1.431 0-2.806-.219-4.106-.619.563-.919 1.412-2.431 1.725-3.631.169-.65.863-3.294.863-3.294.45.863 1.775 1.594 3.175 1.594 4.181 0 7.194-3.844 7.194-8.625 0-4.581-3.738-8.006-8.544-8.006-5.981 0-9.156 4.019-9.156 8.387 0 2.031 1.081 4.563 2.813 5.369.262.125.4.069.463-.188.044-.194.281-1.131.387-1.575a.427.427 0 0 0-.094-.4c-.575-.694-1.031-1.975-1.031-3.162 0-3.056 2.313-6.019 6.256-6.019 3.406 0 5.788 2.319 5.788 5.637 0 3.75-1.894 6.35-4.356 6.35-1.363 0-2.381-1.125-2.05-2.506.394-1.65 1.15-3.425 1.15-4.613 0-1.063-.569-1.95-1.756-1.95-1.394 0-2.506 1.438-2.506 3.369 0 1.225.412 2.056.412 2.056s-1.375 5.806-1.625 6.887c-.281 1.2-.169 2.881-.05 3.975-5.156-2.012-8.813-7.025-8.813-12.9 0-7.656 6.206-13.863 13.862-13.863s13.863 6.206 13.863 13.863c0 7.656-6.206 13.863-13.863 13.863z"/></symbol><symbol id="icon-link" viewBox="0 0 32 32"><path d="M13.757 19.868a1.62 1.62 0 0 1-1.149-.476c-2.973-2.973-2.973-7.81 0-10.783l6-6C20.048 1.169 21.963.376 24 .376s3.951.793 5.392 2.233c2.973 2.973 2.973 7.81 0 10.783l-2.743 2.743a1.624 1.624 0 1 1-2.298-2.298l2.743-2.743a4.38 4.38 0 0 0 0-6.187c-.826-.826-1.925-1.281-3.094-1.281s-2.267.455-3.094 1.281l-6 6a4.38 4.38 0 0 0 0 6.187 1.624 1.624 0 0 1-1.149 2.774z"/><path d="M8 31.625a7.575 7.575 0 0 1-5.392-2.233c-2.973-2.973-2.973-7.81 0-10.783l2.743-2.743a1.624 1.624 0 1 1 2.298 2.298l-2.743 2.743a4.38 4.38 0 0 0 0 6.187c.826.826 1.925 1.281 3.094 1.281s2.267-.455 3.094-1.281l6-6a4.38 4.38 0 0 0 0-6.187 1.624 1.624 0 1 1 2.298-2.298c2.973 2.973 2.973 7.81 0 10.783l-6 6A7.575 7.575 0 0 1 8 31.625z"/></symbol><symbol id="icon-share" viewBox="0 0 32 32"><path d="M27 22a4.985 4.985 0 0 0-3.594 1.526L9.937 16.792a5.035 5.035 0 0 0 0-1.582l13.469-6.734a5 5 0 1 0-1.343-2.683L8.594 12.527A5 5 0 1 0 5 21.001a4.985 4.985 0 0 0 3.594-1.526l13.469 6.734A5 5 0 1 0 27 22z"/></symbol><symbol id="icon-send" viewBox="0 0 24 24"><path d="M24 0 0 13.5l7.67 2.84L19.5 5.25l-8.998 12.14.007.002-.009-.002V24l4.301-5.018L20.251 21 24 0Z"/></symbol><symbol id="icon-decline" viewBox="0 0 32 32"><path d="M31.708 25.708 22 16l9.708-9.708a1 1 0 0 0 0-1.414L27.122.292a1 1 0 0 0-1.414-.001L16 9.999 6.292.291a.998.998 0 0 0-1.414.001L.292 4.878a1 1 0 0 0 0 1.414L10 16 .292 25.708a.999.999 0 0 0 0 1.414l4.586 4.586a1 1 0 0 0 1.414 0L16 22l9.708 9.708a1 1 0 0 0 1.414 0l4.586-4.586a.999.999 0 0 0 0-1.414z"/></symbol><symbol id="icon-accept" viewBox="0 0 32 32"><path d="M27 4 12 19l-7-7-5 5 12 12L32 9z"/></symbol><symbol id="icon-plus" viewBox="0 0 32 32"><path d="M31 12H20V1a1 1 0 0 0-1-1h-6a1 1 0 0 0-1 1v11H1a1 1 0 0 0-1 1v6a1 1 0 0 0 1 1h11v11a1 1 0 0 0 1 1h6a1 1 0 0 0 1-1V20h11a1 1 0 0 0 1-1v-6a1 1 0 0 0-1-1z"/></symbol><symbol id="icon-smartphone" viewBox="0 0 20 32"><path d="M17 0H3C1.346 0 0 1.346 0 3v26c0 1.654 1.346 3 3 3h14c1.654 0 3-1.346 3-3V3c0-1.654-1.346-3-3-3zM3 2h14a1 1 0 0 1 1 1v21H2V3a1 1 0 0 1 1-1zm14 28H3a1 1 0 0 1-1-1v-3h16v3a1 1 0 0 1-1 1z"/><path d="M4.707 27.478c.391.365.391.956 0 1.321s-1.024.365-1.414 0c-.391-.365-.391-.956 0-1.321s1.024-.365 1.414 0z"/></symbol><symbol id="icon-envelope" viewBox="0 0 43 32"><path d="M38.667 0H4C1.794 0 0 1.794 0 4v24c0 2.206 1.794 4 4 4h34.667c2.206 0 4-1.794 4-4V4c0-2.206-1.794-4-4-4zm0 2.667c.181 0 .353.038.511.103L21.334 18.236 3.49 2.77a1.32 1.32 0 0 1 .511-.103h34.667zm0 26.666H4A1.334 1.334 0 0 1 2.667 28V5.587L20.46 21.008a1.335 1.335 0 0 0 1.748 0L40.001 5.587V28c0 .736-.598 1.333-1.333 1.333z"/></symbol><symbol id="burger-btn" viewBox="0 0 24 16"><path fill-rule="evenodd" clip-rule="evenodd" d="M0 2.667V0h24v2.667H0Zm0 6.666h24V6.667H0v2.666ZM0 16h24v-2.667H0V16Z"/></symbol><symbol id="icon-files-empty" viewBox="0 0 32 32"><path d="M28.681 11.159c-.694-.947-1.662-2.053-2.724-3.116s-2.169-2.03-3.116-2.724C21.229 4.137 20.448 4 20 4H8.5A2.503 2.503 0 0 0 6 6.5v23C6 30.878 7.121 32 8.5 32h19c1.378 0 2.5-1.122 2.5-2.5V14c0-.448-.137-1.23-1.319-2.841zm-4.138-1.702A27.334 27.334 0 0 1 26.811 12H22V7.189a27.334 27.334 0 0 1 2.543 2.268zM28 29.5c0 .271-.229.5-.5.5h-19a.507.507 0 0 1-.5-.5v-23c0-.271.229-.5.5-.5H20v7a1 1 0 0 0 1 1h7v15.5z"/><path d="M18.841 1.319C17.229.137 16.448 0 16 0H4.5A2.503 2.503 0 0 0 2 2.5v23c0 1.207.86 2.217 2 2.45V2.5c0-.271.229-.5.5-.5h15.215a19.873 19.873 0 0 0-.873-.681z"/></symbol><symbol id="icon-price-tags" viewBox="0 0 40 32"><path d="M38.5 0h-12c-.825 0-1.977.477-2.561 1.061L9.06 15.94a1.505 1.505 0 0 0 0 2.121L21.939 30.94a1.505 1.505 0 0 0 2.121 0l14.879-14.879C39.522 15.478 40 14.325 40 13.5v-12c0-.825-.675-1.5-1.5-1.5zM31 12a3 3 0 1 1 0-6 3 3 0 0 1 0 6z"/><path d="M4 17 21 0h-2.5c-.825 0-1.977.477-2.561 1.061L1.06 15.94a1.505 1.505 0 0 0 0 2.121L13.939 30.94a1.505 1.505 0 0 0 2.121 0l.939-.939-13-13z"/></symbol><symbol id="icon-barcode" viewBox="0 0 32 32"><path d="M0 4h4v20H0zm6 0h2v20H6zm4 0h2v20h-2zm6 0h2v20h-2zm8 0h2v20h-2zm6 0h2v20h-2zM20 4h1v20h-1zm-6 0h1v20h-1zm13 0h1v20h-1zM0 26h2v2H0zm6 0h2v2H6zm4 0h2v2h-2zm10 0h2v2h-2zm10 0h2v2h-2zm-6 0h4v2h-4zm-10 0h4v2h-4z"/></symbol><symbol id="icon-qrcode" viewBox="0 0 32 32"><path d="M10 2H2v8h8V2zm2-2v12H0V0h12zM4 4h4v4H4zm26-2h-8v8h8V2zm2-2v12H20V0h12zm-8 4h4v4h-4zM10 22H2v8h8v-8zm2-2v12H0V20h12zm-8 4h4v4H4zM14 0h2v2h-2zm2 2h2v2h-2zm-2 2h2v2h-2zm2 2h2v2h-2zm-2 2h2v2h-2zm2 2h2v2h-2zm-2 2h2v2h-2zm0 4h2v2h-2zm2 2h2v2h-2zm-2 2h2v2h-2zm2 2h2v2h-2zm-2 2h2v2h-2zm2 2h2v2h-2zm-2 2h2v2h-2zm2 2h2v2h-2zm14-14h2v2h-2zM2 16h2v2H2zm2-2h2v2H4zm-4 0h2v2H0zm8 0h2v2H8zm2 2h2v2h-2zm2-2h2v2h-2zm6 2h2v2h-2zm2-2h2v2h-2zm2 2h2v2h-2zm2-2h2v2h-2zm2 2h2v2h-2zm2-2h2v2h-2zm2 6h2v2h-2zm-12 0h2v2h-2zm2-2h2v2h-2zm2 2h2v2h-2zm4 0h2v2h-2zm2-2h2v2h-2zm2 6h2v2h-2zm-12 0h2v2h-2zm2-2h2v2h-2zm4 0h2v2h-2zm2 2h2v2h-2zm2-2h2v2h-2zm2 6h2v2h-2zm-10-2h2v2h-2zm2 2h2v2h-2zm2-2h2v2h-2zm2 2h2v2h-2zm-6 2h2v2h-2zm4 0h2v2h-2zm4 0h2v2h-2z"/></symbol><symbol id="icon-phone" viewBox="0 0 32 32"><path d="M22 20c-2 2-2 4-4 4s-4-2-6-4-4-4-4-6 2-2 4-4-4-8-6-8-6 6-6 6c0 4 4.109 12.109 8 16s12 8 16 8c0 0 6-4 6-6s-6-8-8-6z"/></symbol><symbol id="icon-bubble2" viewBox="0 0 32 32"><path d="M16 6c-1.717 0-3.375.271-4.928.804-1.46.502-2.76 1.211-3.863 2.108C5.14 10.593 4 12.755 4 15c0 1.259.35 2.481 1.039 3.63.711 1.185 1.781 2.268 3.093 3.133a3.996 3.996 0 0 1 1.755 2.747c.056.375.091.753.105 1.129.233-.194.461-.401.684-.624a4 4 0 0 1 3.333-1.14c.655.083 1.325.126 1.99.126 1.717 0 3.375-.271 4.928-.804 1.46-.502 2.76-1.211 3.863-2.108 2.069-1.681 3.209-3.843 3.209-6.088s-1.14-4.407-3.209-6.088c-1.104-.897-2.404-1.606-3.863-2.108a15.118 15.118 0 0 0-4.928-.804zm0-4c8.837 0 16 5.82 16 13s-7.163 13-16 13a19.66 19.66 0 0 1-2.495-.158C10.068 31.279 5.966 31.895 2 31.986v-.841C4.142 30.096 6 28.184 6 26c0-.305-.024-.604-.068-.897C2.313 22.72 0 19.079 0 15 0 7.82 7.163 2 16 2z"/></symbol><symbol id="icon-search" viewBox="0 0 32 32"><path d="m31.008 27.231-7.58-6.447c-.784-.705-1.622-1.029-2.299-.998a11.954 11.954 0 0 0 2.87-7.787c0-6.627-5.373-12-12-12s-12 5.373-12 12 5.373 12 12 12c2.972 0 5.691-1.081 7.787-2.87-.031.677.293 1.515.998 2.299l6.447 7.58c1.104 1.226 2.907 1.33 4.007.23s.997-2.903-.23-4.007zM12 20a8 8 0 1 1 0-16 8 8 0 0 1 0 16z"/></symbol><symbol id="icon-cog" viewBox="0 0 32 32"><path d="M29.181 19.07c-1.679-2.908-.669-6.634 2.255-8.328l-3.145-5.447a6.022 6.022 0 0 1-3.058.829c-3.361 0-6.085-2.742-6.085-6.125h-6.289a6.023 6.023 0 0 1-.811 3.07C10.369 5.977 6.637 6.966 3.709 5.28L.565 10.727a6.023 6.023 0 0 1 2.246 2.234c1.676 2.903.672 6.623-2.241 8.319l3.145 5.447a6.022 6.022 0 0 1 3.044-.82c3.35 0 6.067 2.725 6.084 6.092h6.289a6.032 6.032 0 0 1 .811-3.038c1.676-2.903 5.399-3.894 8.325-2.219l3.145-5.447a6.032 6.032 0 0 1-2.232-2.226zM16 22.479A6.48 6.48 0 1 1 16 9.52a6.48 6.48 0 0 1 0 12.959z"/></symbol><symbol id="icon-eye-minus" viewBox="0 0 32 32"><path d="M20 4h12v4H20V4z"/><path d="M27.198 10H18V6.113A17.859 17.859 0 0 0 16 6C9.021 6 2.972 10.064 0 16c2.972 5.936 9.021 10 16 10s13.027-4.064 16-10a18.336 18.336 0 0 0-4.803-6zM13 10a3 3 0 1 1 0 6 3 3 0 0 1 0-6zm10.889 10.697C21.527 22.204 18.799 23 16 23s-5.527-.796-7.889-2.303A15.212 15.212 0 0 1 3.441 16a15.223 15.223 0 0 1 5.041-4.925 8 8 0 1 0 15.036 0A15.212 15.212 0 0 1 28.559 16a15.223 15.223 0 0 1-4.67 4.697z"/></symbol><symbol id="icon-eye-blocked" viewBox="0 0 32 32"><path d="M29.561.439a1.5 1.5 0 0 0-2.121 0l-6.318 6.318A17.626 17.626 0 0 0 16 6C9.021 6 2.972 10.064 0 16a18.323 18.323 0 0 0 5.407 6.472L.439 27.44a1.5 1.5 0 1 0 2.122 2.121l27-27a1.5 1.5 0 0 0 0-2.121zM13 10a3 3 0 0 1 2.841 2.037l-3.804 3.804A3 3 0 0 1 13 10zm-9.559 6a15.223 15.223 0 0 1 5.041-4.925A7.985 7.985 0 0 0 8 13.812c0 1.715.54 3.304 1.459 4.607l-1.904 1.904A15.219 15.219 0 0 1 3.441 16zM24 13.813c0-.849-.133-1.667-.378-2.434L13.566 21.435a8 8 0 0 0 10.435-7.622z"/><path d="M25.938 9.062 23.77 11.23l.118.074a15.212 15.212 0 0 1 4.67 4.697 15.223 15.223 0 0 1-4.67 4.697 14.642 14.642 0 0 1-11.45 1.864l-2.403 2.403a17.587 17.587 0 0 0 5.964 1.036c6.978 0 13.027-4.064 16-10a18.292 18.292 0 0 0-6.062-6.938z"/></symbol><symbol id="icon-plus" viewBox="0 0 32 32"><path d="M31 12H20V1a1 1 0 0 0-1-1h-6a1 1 0 0 0-1 1v11H1a1 1 0 0 0-1 1v6a1 1 0 0 0 1 1h11v11a1 1 0 0 0 1 1h6a1 1 0 0 0 1-1V20h11a1 1 0 0 0 1-1v-6a1 1 0 0 0-1-1z"/></symbol><symbol id="icon-minus" viewBox="0 0 32 32"><path d="M0 13v6a1 1 0 0 0 1 1h30a1 1 0 0 0 1-1v-6a1 1 0 0 0-1-1H1a1 1 0 0 0-1 1z"/></symbol><symbol id="icon-cross" viewBox="0 0 32 32"><path d="M31.708 25.708 22 16l9.708-9.708a1 1 0 0 0 0-1.414L27.122.292a1 1 0 0 0-1.414-.001L16 9.999 6.292.291a.998.998 0 0 0-1.414.001L.292 4.878a1 1 0 0 0 0 1.414L10 16 .292 25.708a.999.999 0 0 0 0 1.414l4.586 4.586a1 1 0 0 0 1.414 0L16 22l9.708 9.708a1 1 0 0 0 1.414 0l4.586-4.586a.999.999 0 0 0 0-1.414z"/></symbol><symbol id="icon-checkmark" viewBox="0 0 32 32"><path d="M27 4 12 19l-7-7-5 5 12 12L32 9z"/></symbol><symbol id="icon-telegram" viewBox="0 0 32 32"><path d="M16 0C7.162 0 0 7.162 0 16s7.162 16 16 16 16-7.163 16-16S24.837 0 16 0zm7.863 10.969-2.625 12.369c-.181.881-.712 1.087-1.45.681l-4-2.956-1.919 1.869c-.225.219-.4.4-.8.4-.519 0-.431-.194-.606-.688L11.1 18.169l-3.956-1.231c-.856-.262-.862-.85.194-1.269l15.412-5.95c.7-.319 1.381.169 1.113 1.25z"/></symbol><symbol id="icon-vimeo" viewBox="0 0 32 32"><path d="M31.988 8.563c-.144 3.113-2.319 7.381-6.525 12.794-4.35 5.65-8.031 8.481-11.044 8.481-1.863 0-3.444-1.719-4.731-5.163-.863-3.156-1.719-6.313-2.581-9.469-.956-3.444-1.981-5.162-3.081-5.162-.237 0-1.075.506-2.513 1.506L.007 9.612A391.952 391.952 0 0 0 4.676 5.45C6.782 3.631 8.364 2.675 9.42 2.575c2.487-.237 4.025 1.463 4.6 5.106.619 3.931 1.05 6.375 1.294 7.331.719 3.263 1.506 4.894 2.369 4.894.669 0 1.675-1.056 3.019-3.175 1.337-2.113 2.056-3.725 2.156-4.831.194-1.825-.525-2.744-2.156-2.744-.769 0-1.556.175-2.369.525 1.575-5.15 4.575-7.65 9.012-7.506 3.281.087 4.831 2.219 4.644 6.388z"/></symbol></defs></svg>